<svg width="602" height="131" viewBox="0 0 602 131" fill="none" xmlns="http://www.w3.org/2000/svg">
<path fill-rule="evenodd" clip-rule="evenodd" d="M6.40032 130.667L0.932689 130.822L0.933591 130.667L1.73359 121.6C2.40025 112.667 6.66692 97.8667 9.86692 92.6667C14.8003 84.6667 25.7336 46.9333 25.4669 38.6667C25.3336 35.3333 24.2669 29.7333 23.2002 26.1333L21.0669 19.7333L26.5336 14.2667C30.1336 10.5333 32.4002 9.2 33.3335 10.1333C35.0669 11.8667 40.5335 38 43.2002 58C46.5335 81.6 51.2002 92.8 54.9335 86C55.7335 84.8 59.2002 80.5333 62.8002 76.5333C66.4002 72.6667 70.8002 66.2667 72.6669 62.5333C74.6669 58.8 80.9336 50.8 86.667 44.8C95.3336 35.8667 97.467 34.2667 98.9337 35.7333C100.134 36.9333 100.934 43.4667 101.467 56.4C101.585 58.6998 101.696 60.9148 101.8 62.9715L101.8 62.9732C102.164 70.2165 102.43 75.4962 102.534 75.6C102.534 75.7333 104.267 76.8 106.4 77.7333C112 80.6667 119.467 81.6 128.8 80.6667C136.934 79.7333 137.2 79.6 138.134 75.4667C139.334 69.4667 145.467 58.6667 148.8 56.5333C152.667 53.8667 156.4 55.4667 155.6 59.4667C155.2 62 155.6 62.5333 157.734 62.2667C160.134 62 160.667 63.0667 161.734 68.6667C162.267 72.2667 163.467 76 164.267 76.9333C166.8 80 171.2 78.8 174.4 74.2667C178 68.8 178.134 65.2 174.667 62C172.534 60 172 58.1333 172.267 53.4667C172.667 47.7333 172.934 47.3333 176.534 47.3333C180.534 47.3333 181.734 48.5333 184 54.9333C184.934 57.8667 186.134 58.6667 189.2 58.6667C195.734 58.6667 200.267 63.6 201.067 71.7333C201.867 80.1333 203.467 81.8667 208.934 79.7333C212.667 78.2667 213.067 77.6 213.067 72.5333C213.067 64.4 217.467 55.3333 222.667 52.6667C233.067 47.3333 243.733 55.7333 239.467 65.8667C237.2 71.2 234.933 72.8 232.933 70.8C231.733 69.6 231.867 68.6667 233.067 66.6667C235.333 62.9333 235.067 60.2667 232 58.6667C228.933 57.0667 224.8 58.6667 223.467 62.1333C221.6 67.0667 222.667 72.2667 226.533 76.1333C230.533 80.1333 235.333 81.0667 248.4 80.2667C256.667 79.7333 254.267 83.6 244 87.2C232.667 91.2 224.933 89.7333 216.4 82.1333C213.733 79.8667 213.334 79.8667 213.334 81.7333C213.334 82.9333 212.134 84.5333 210.8 85.3333C207.867 86.8 200.134 87.0667 196.667 85.8667C193.867 84.6667 190.267 77.8667 189.467 71.3333C188.267 63.6 185.067 64.2667 180.4 73.3333C175.334 82.8 169.2 87.2 162 86.2667C159.2 85.8667 156 84.5333 155.067 83.2C153.467 81.0667 153.2 81.0667 150.934 83.0667C149.334 84.5333 146.4 85.3333 142.534 85.2C139.334 85.2 130.8 86.4 123.467 87.8667C106.667 91.4667 105.067 91.3333 97.3337 87.0667C89.467 82.6667 88.0003 79.7333 88.0003 68.9333C88.0003 57.3333 86.4003 55.6 82.2669 62.2667C73.4669 76.2667 57.3335 96 54.6669 96C53.7335 96 50.9335 97.3333 48.2669 98.9333L43.6002 101.733L41.2002 98.8C39.7335 97.0667 38.6669 94.8 38.6669 93.6C38.6669 92.5333 37.8669 90.5333 36.8002 89.4667C35.7335 88.2667 34.4002 84.2667 33.7335 80.6667C32.8002 75.3333 32.1335 74 30.0002 74C28.5335 74 26.6669 75.4667 25.8669 77.3333C22.5336 84 7.86691 122.8 7.20025 126.667L6.40032 130.667ZM375.2 11.3333L380 9.33334L384 14.9333C386.267 18 388.4 21.8667 388.8 23.6C389.333 25.3333 390 26.6667 390.667 26.6667C392.133 26.6667 396.133 21.8667 395.333 21.0667C394.933 20.6667 395.067 17.8667 395.733 14.9333C397.333 8.4 395.2 4.66667 388.533 1.86667C379.067 -2.13333 374.4 0.266666 355.067 18.4C339.467 33.0667 338.667 34.1333 327.733 53.7333C316.667 73.4667 309.333 90.5333 309.333 96.4C309.333 98 311.333 103.2 313.867 107.867C317.067 114.133 319.333 116.8 322.667 118.133C328.933 120.8 339.467 120.4 348 117.333C360 112.8 395.467 94.5333 402.667 89.0667C407.733 85.2 410.267 84.1333 412.667 84.8C414.533 85.2 417.067 84.8 418.8 83.6C421.333 81.7333 422.133 81.7333 426.8 84.2667C435.867 88.9333 444 84.8 450.133 72.4L454.267 64.1333C455.467 62.1333 458.533 67.7333 459.2 73.0667C459.6 76.5333 460.933 80.8 462 82.2667C464.267 85.6 471.467 87.4667 476.667 86.1333C482 84.8 488.8 77.8667 491.867 70.5333C493.467 66.9333 495.467 64 496.267 64.2667C497.2 64.6667 498.533 68.2667 499.333 72.5333C501.333 82.5333 504.667 85.7333 512.4 85.7333C519.2 85.6 524 83.4667 524 80.6667C524 79.2 522.533 78.8 517.733 79.0667L511.333 79.3333L510.667 72.6667C510.267 68.9333 509.067 64.6667 508 63.0667C506 60 500.267 57.3333 495.867 57.3333C494.4 57.3333 493.333 56.4 493.333 55.3333C493.333 51.7333 490.267 46.6667 487.6 45.8667C485.6 45.2 484.133 45.8667 482.4 48C479.067 52 479.333 55.0667 483.467 59.8667C487.6 64.8 487.067 69.7333 481.733 76C475.867 83.0667 469.333 80.6667 469.333 71.4667C469.2 63.8667 463.333 57.3333 456.4 57.3333C454.8 57.3333 453.067 55.3333 451.333 51.6C448 44.5333 443.333 43.2 441.333 48.8C439.466 53.4667 440.667 59.0667 444.133 62.1333C447.333 65.0667 447.333 67.6 444 72.9333C441.333 77.4667 435.467 80 433.067 77.6C432.4 76.9333 431.333 73.0667 430.8 69.2C430.133 62.9333 429.6 62 427.067 62.1333C424.8 62.1333 424.267 61.4667 424.4 58.8C424.667 56.2667 424 55.2 421.867 54.9333C416.667 54.1333 406.667 68.4 406.667 76.6667C406.667 79.0667 405.2 80.9333 401.067 83.6C390.667 90.1333 367.467 101.333 357.333 104.533C341.867 109.6 337.867 109.6 331.467 103.867C324.933 98.2667 324 91.0667 328 78.9333C329.6 74 332 68.1333 333.333 66C334.667 63.7333 338 56.6667 340.8 50.1333C345.2 39.7333 347.2 36.9333 358.133 25.8667C364.933 18.9333 372.667 12.4 375.2 11.3333ZM554.533 80.8C547.2 82.6667 541.733 80.9333 539.6 76.4C538.4 73.6 538.533 72.8 540.667 71.6C548.933 67.0667 552.133 57.6 547.067 52.9333C536.933 43.8667 520.4 56.4 524.267 70.1333C527.333 81.6 532.933 87.3333 543.2 89.6C551.733 91.6 554.133 91.2 559.067 87.4667C562.533 84.8 564.667 84.1333 567.2 84.8C569.467 85.3333 571.867 84.8 574 83.4667C577.067 81.4667 577.733 81.4667 580.267 83.3333C585.333 86.8 592.667 85.8667 597.6 81.2L602 77.0667L596.667 77.8667C589.6 78.8 586.667 76.1333 586.667 68.6667C586.667 62.9333 584.8 59.7333 582 60.8C581.067 61.2 580.533 60.2667 580.533 58.4C580.8 52.2667 573.467 54.6667 566.8 63.0667C565.733 64.4 563.867 68.5333 562.667 72.4C560.533 78.9333 560.133 79.4667 554.533 80.8ZM288 65.3333C284.4 67.3333 278.667 65.6 278.667 62.6667C278.667 61.3333 277.067 58.4 275.2 56.1333C270.933 50.9333 266.267 50.8 261.867 55.6C258 59.7333 255.333 67.8667 256.4 72.2667C257.867 77.7333 263.2 84.6667 266.533 85.0667C270.267 85.6 275.6 81.0667 278.133 74.9333C279.6 71.6 280.8 70.6667 283.733 70.6667C287.733 70.6667 290.667 68.5333 290.667 65.7333C290.667 64.2667 290 64.2667 288 65.3333ZM485.333 53.2C485.333 53.8667 486 54.9333 486.667 55.3333C487.467 55.7333 488 55.6 488 54.8C488 54.1333 487.467 53.0667 486.667 52.6667C486 52.2667 485.333 52.4 485.333 53.2ZM418.667 74.6667C416.8 74.6667 417.066 69.7333 418.933 66.2667C420.4 63.6 420.533 63.6 421.066 65.7333C421.733 69.0667 420.267 74.6667 418.667 74.6667ZM538 56.8C535.733 59.0667 535.2 65.3333 537.333 65.3333C539.333 65.3333 544 60.2667 544 58.1333C544 55.3333 540.4 54.5333 538 56.8ZM572 74.2667C572 72.9333 572.933 70.1333 574 68C576.667 62.9333 577.467 62.9333 576.8 68.1333C576.267 72.9333 572 78.2667 572 74.2667ZM268.267 61.6C269.067 64 272 64.4 272 62.1333C272 60.9333 271.067 60 269.867 60C268.667 60 268 60.6667 268.267 61.6ZM268.667 74.6667C267.6 74.6667 266.667 74 266.667 73.3333C266.667 72.5333 267.6 72 268.667 72C269.733 72 270.667 72.5333 270.667 73.3333C270.667 74 269.733 74.6667 268.667 74.6667ZM176 54.5333C176 55.3333 176.667 56.2667 177.334 56.6667C178.134 57.0667 178.667 56.5333 178.667 55.4667C178.667 54.2667 178.134 53.3333 177.334 53.3333C176.667 53.3333 176 53.8667 176 54.5333ZM149.334 76C147.467 76 147.734 71.0667 149.6 67.6C151.067 64.9333 151.2 64.9333 151.734 67.0667C152.4 70.4 150.934 76 149.334 76Z" fill="black"/>
</svg>
